<?xml version="1.0" encoding="UTF-8" standalone="no"?>
<svg
   xmlns:dc="http://purl.org/dc/elements/1.1/"
   xmlns:cc="http://creativecommons.org/ns#"
   xmlns:rdf="http://www.w3.org/1999/02/22-rdf-syntax-ns#"
   xmlns:svg="http://www.w3.org/2000/svg"
   xmlns="http://www.w3.org/2000/svg"
   xmlns:sodipodi="http://sodipodi.sourceforge.net/DTD/sodipodi-0.dtd"
   xmlns:inkscape="http://www.inkscape.org/namespaces/inkscape"
   width="24"
   height="24"
   viewBox="0 0 24 24"
   version="1.1"
   id="svg26"
   sodipodi:docname="suntimesalarms1.svg"
   inkscape:version="0.92.3 (2405546, 2018-03-11)"
   inkscape:export-xdpi="2048"
   inkscape:export-ydpi="2048">
  <metadata
     id="metadata32">
    <rdf:RDF>
      <cc:Work
         rdf:about="">
        <dc:format>image/svg+xml</dc:format>
        <dc:type
           rdf:resource="http://purl.org/dc/dcmitype/StillImage" />
        <dc:title />
        <cc:license
           rdf:resource="http://creativecommons.org/licenses/by-sa/4.0/" />
        <dc:creator>
          <cc:Agent>
            <dc:title>Forrest Guice</dc:title>
          </cc:Agent>
        </dc:creator>
        <dc:date>2020-10-02</dc:date>
      </cc:Work>
      <cc:License
         rdf:about="http://creativecommons.org/licenses/by-sa/4.0/">
        <cc:permits
           rdf:resource="http://creativecommons.org/ns#Reproduction" />
        <cc:permits
           rdf:resource="http://creativecommons.org/ns#Distribution" />
        <cc:requires
           rdf:resource="http://creativecommons.org/ns#Notice" />
        <cc:requires
           rdf:resource="http://creativecommons.org/ns#Attribution" />
        <cc:permits
           rdf:resource="http://creativecommons.org/ns#DerivativeWorks" />
        <cc:requires
           rdf:resource="http://creativecommons.org/ns#ShareAlike" />
      </cc:License>
    </rdf:RDF>
  </metadata>
  <defs
     id="defs30">
    <marker
       inkscape:stockid="DotS"
       orient="auto"
       refY="0.0"
       refX="0.0"
       id="DotS"
       style="overflow:visible"
       inkscape:isstock="true">
      <path
         id="path2480"
         d="M -2.5,-1.0 C -2.5,1.7600000 -4.7400000,4.0 -7.5,4.0 C -10.260000,4.0 -12.5,1.7600000 -12.5,-1.0 C -12.5,-3.7600000 -10.260000,-6.0 -7.5,-6.0 C -4.7400000,-6.0 -2.5,-3.7600000 -2.5,-1.0 z "
         style="fill-rule:evenodd;stroke:#808080;stroke-width:1pt;stroke-opacity:1;fill:#ffcc00;fill-opacity:1"
         transform="scale(0.2) translate(7.4, 1)" />
    </marker>
    <marker
       inkscape:stockid="Tail"
       orient="auto"
       refY="0.0"
       refX="0.0"
       id="Tail"
       style="overflow:visible"
       inkscape:isstock="true">
      <g
         id="g2461"
         transform="scale(-1.2)"
         style="stroke:#808080;stroke-opacity:1;fill:#ffcc00;fill-opacity:1">
        <path
           id="path2449"
           d="M -3.8048674,-3.9585227 L 0.54352094,0"
           style="fill:#ffcc00;fill-rule:evenodd;stroke:#808080;stroke-width:0.8;stroke-linecap:round;stroke-opacity:1;fill-opacity:1" />
        <path
           id="path2451"
           d="M -1.2866832,-3.9585227 L 3.0617053,0"
           style="fill:#ffcc00;fill-rule:evenodd;stroke:#808080;stroke-width:0.8;stroke-linecap:round;stroke-opacity:1;fill-opacity:1" />
        <path
           id="path2453"
           d="M 1.3053582,-3.9585227 L 5.6537466,0"
           style="fill:#ffcc00;fill-rule:evenodd;stroke:#808080;stroke-width:0.8;stroke-linecap:round;stroke-opacity:1;fill-opacity:1" />
        <path
           id="path2455"
           d="M -3.8048674,4.1775838 L 0.54352094,0.21974226"
           style="fill:#ffcc00;fill-rule:evenodd;stroke:#808080;stroke-width:0.8;stroke-linecap:round;stroke-opacity:1;fill-opacity:1" />
        <path
           id="path2457"
           d="M -1.2866832,4.1775838 L 3.0617053,0.21974226"
           style="fill:#ffcc00;fill-rule:evenodd;stroke:#808080;stroke-width:0.8;stroke-linecap:round;stroke-opacity:1;fill-opacity:1" />
        <path
           id="path2459"
           d="M 1.3053582,4.1775838 L 5.6537466,0.21974226"
           style="fill:#ffcc00;fill-rule:evenodd;stroke:#808080;stroke-width:0.8;stroke-linecap:round;stroke-opacity:1;fill-opacity:1" />
      </g>
    </marker>
    <marker
       inkscape:stockid="Arrow1Mend"
       orient="auto"
       refY="0.0"
       refX="0.0"
       id="Arrow1Mend"
       style="overflow:visible;"
       inkscape:isstock="true">
      <path
         id="path2422"
         d="M 0.0,0.0 L 5.0,-5.0 L -12.5,0.0 L 5.0,5.0 L 0.0,0.0 z "
         style="fill-rule:evenodd;stroke:#808080;stroke-width:1pt;stroke-opacity:1;fill:#ffcc00;fill-opacity:1"
         transform="scale(0.4) rotate(180) translate(10,0)" />
    </marker>
    <marker
       inkscape:stockid="Arrow1Lstart"
       orient="auto"
       refY="0.0"
       refX="0.0"
       id="Arrow1Lstart"
       style="overflow:visible"
       inkscape:isstock="true">
      <path
         id="path2413"
         d="M 0.0,0.0 L 5.0,-5.0 L -12.5,0.0 L 5.0,5.0 L 0.0,0.0 z "
         style="fill-rule:evenodd;stroke:#808080;stroke-width:1pt;stroke-opacity:1;fill:#ffcc00;fill-opacity:1"
         transform="scale(0.8) translate(12.5,0)" />
    </marker>
  </defs>
  <sodipodi:namedview
     pagecolor="#ffffff"
     bordercolor="#666666"
     borderopacity="1"
     objecttolerance="10"
     gridtolerance="10"
     guidetolerance="10"
     inkscape:pageopacity="0"
     inkscape:pageshadow="2"
     inkscape:window-width="1920"
     inkscape:window-height="1137"
     id="namedview28"
     showgrid="true"
     inkscape:zoom="11.313708"
     inkscape:cx="7.6426332"
     inkscape:cy="9.3364483"
     inkscape:window-x="1272"
     inkscape:window-y="-8"
     inkscape:window-maximized="1"
     inkscape:current-layer="svg26"
     showguides="false">
    <inkscape:grid
       type="xygrid"
       id="grid4671" />
  </sodipodi:namedview>
  <rect
     style="fill:#000000;fill-opacity:1;stroke:none;stroke-width:2;stroke-linecap:square;stroke-linejoin:round;stroke-miterlimit:4;stroke-dasharray:16, 2;stroke-dashoffset:0;stroke-opacity:0.3372549;paint-order:normal"
     id="rect1253"
     width="24"
     height="24"
     x="0"
     y="0" />
  <g
     id="g1089">
    <path
       id="path4655"
       d="m 22,5.72 -4.6,-3.86 -1.29,1.53 4.6,3.86 z"
       style="fill:#ffffff;fill-opacity:0.50251255;stroke:none;stroke-width:0.2;stroke-miterlimit:4;stroke-dasharray:none;stroke-opacity:1"
       inkscape:connector-curvature="0" />
    <path
       id="path4653"
       d="M 7.88,3.39 6.6,1.86 2,5.71 3.29,7.24 Z"
       style="fill:#ffffff;fill-opacity:0.50251255;stroke:none;stroke-width:0.2;stroke-miterlimit:4;stroke-dasharray:none;stroke-opacity:1"
       inkscape:connector-curvature="0" />
    <path
       id="path4649-0"
       d="M 12 4 C 7.03 4 3 8.029999 3 13 C 3 17.97 7.02 22 12 22 C 16.97 22 21 17.97 21 13 C 21 8.029999 16.97 4 12 4 z M 11.503906 5 L 11.503906 12.535156 L 4 12.535156 A 8.0020485 8.1532357 0 0 1 11.503906 5 z M 12.449219 5 A 8.0022049 8.1536844 0 0 1 19.947266 12.535156 L 12.449219 12.535156 L 12.449219 5 z M 4.0117188 13.482422 L 19.939453 13.482422 A 7.9975224 8.2293235 0 0 1 11.976562 21.074219 A 7.9975224 8.2293235 0 0 1 4.0117188 13.482422 z "
       style="fill:#ffffff;fill-opacity:0.50251255;stroke:none;stroke-width:0.2;stroke-miterlimit:4;stroke-dasharray:none;stroke-opacity:1" />
  </g>
  <path
     style="fill:none;fill-opacity:1;stroke:none;stroke-opacity:1;stroke-width:0.2;stroke-miterlimit:4;stroke-dasharray:none"
     d="m 12.131645,19.48358 c -3.87,0 -6.9999998,-3.13 -6.9999998,-7 0,-3.870001 3.1299998,-7.0000011 6.9999998,-7.0000011 3.87,0 7,3.1300001 7,7.0000011 0,3.87 -3.13,7 -7,7 z"
     id="path825" />
  <path
     d="m 1.581856,0.82531614 h 24 V 24.825316 h -24 z"
     id="path22"
     inkscape:connector-curvature="0"
     style="fill:none" />
  <path
     inkscape:connector-curvature="0"
     style="fill:none;fill-opacity:1;stroke:none;stroke-width:0.3;stroke-miterlimit:4;stroke-dasharray:none;stroke-opacity:1"
     d="m 12.107329,5.0398097 c -4.1240425,0 -7.4680852,3.344043 -7.4680852,7.4680873 0,4.124041 3.3357447,7.468084 7.4680852,7.468084 4.124043,0 7.468085,-3.344043 7.468085,-7.468084 0,-4.1240443 -3.344042,-7.4680873 -7.468085,-7.4680873 z"
     id="path4649-1" />
  <path
     d="m 24.486385,16.321261 h 24 v 24 h -24 z"
     id="path22-1"
     inkscape:connector-curvature="0"
     style="fill:none" />
  <g
     id="g1084">
    <path
       style="display:inline;fill:#ffffff;fill-opacity:0.18039216;fill-rule:evenodd;stroke:none;stroke-width:1.0311873;stroke-linecap:square;stroke-linejoin:miter;stroke-miterlimit:4;stroke-dasharray:none;stroke-opacity:1"
       d="m 4.011452,13.482422 a 7.9975224,8.2293235 0 0 0 7.965849,7.591899 7.9975224,8.2293235 0 0 0 7.962152,-7.591899 z"
       id="path1509-2"
       inkscape:connector-curvature="0" />
    <path
       style="display:inline;fill:#ffffff;fill-opacity:1;fill-rule:evenodd;stroke:none;stroke-width:1.02669942;stroke-linecap:square;stroke-linejoin:miter;stroke-miterlimit:4;stroke-dasharray:none;stroke-dashoffset:0;stroke-opacity:1"
       d="M 11.503793,5.000617 A 8.0020485,8.1532357 0 0 0 4,12.535156 h 7.503793 z"
       id="path1513-7"
       inkscape:connector-curvature="0" />
    <path
       style="display:inline;fill:#ffffff;fill-opacity:0.3316583;fill-rule:evenodd;stroke:none;stroke-width:1.02673769;stroke-linecap:square;stroke-linejoin:miter;stroke-miterlimit:4;stroke-dasharray:none;stroke-dashoffset:0;stroke-opacity:1"
       d="m 12.450866,5.000617 v 7.534539 h 7.4964 a 8.0022049,8.1536844 0 0 0 -7.4964,-7.534539 z"
       id="path1511-3"
       inkscape:connector-curvature="0" />
  </g>
</svg>
