<?xml version="1.0" encoding="UTF-8" standalone="no"?>
<svg
   xmlns:dc="http://purl.org/dc/elements/1.1/"
   xmlns:cc="http://creativecommons.org/ns#"
   xmlns:rdf="http://www.w3.org/1999/02/22-rdf-syntax-ns#"
   xmlns:svg="http://www.w3.org/2000/svg"
   xmlns="http://www.w3.org/2000/svg"
   xmlns:sodipodi="http://sodipodi.sourceforge.net/DTD/sodipodi-0.dtd"
   xmlns:inkscape="http://www.inkscape.org/namespaces/inkscape"
   width="24"
   height="24"
   viewBox="0 0 24 24"
   version="1.1"
   id="svg26"
   sodipodi:docname="suntimesalarm.svg"
   inkscape:version="0.92.3 (2405546, 2018-03-11)"
   inkscape:export-xdpi="2048"
   inkscape:export-ydpi="2048">
  <metadata
     id="metadata32">
    <rdf:RDF>
      <cc:Work
         rdf:about="">
        <dc:format>image/svg+xml</dc:format>
        <dc:type
           rdf:resource="http://purl.org/dc/dcmitype/StillImage" />
        <dc:title />
      </cc:Work>
    </rdf:RDF>
  </metadata>
  <defs
     id="defs30">
    <marker
       inkscape:stockid="DotS"
       orient="auto"
       refY="0.0"
       refX="0.0"
       id="DotS"
       style="overflow:visible"
       inkscape:isstock="true">
      <path
         id="path2480"
         d="M -2.5,-1.0 C -2.5,1.7600000 -4.7400000,4.0 -7.5,4.0 C -10.260000,4.0 -12.5,1.7600000 -12.5,-1.0 C -12.5,-3.7600000 -10.260000,-6.0 -7.5,-6.0 C -4.7400000,-6.0 -2.5,-3.7600000 -2.5,-1.0 z "
         style="fill-rule:evenodd;stroke:#808080;stroke-width:1pt;stroke-opacity:1;fill:#ffcc00;fill-opacity:1"
         transform="scale(0.2) translate(7.4, 1)" />
    </marker>
    <marker
       inkscape:stockid="Tail"
       orient="auto"
       refY="0.0"
       refX="0.0"
       id="Tail"
       style="overflow:visible"
       inkscape:isstock="true">
      <g
         id="g2461"
         transform="scale(-1.2)"
         style="stroke:#808080;stroke-opacity:1;fill:#ffcc00;fill-opacity:1">
        <path
           id="path2449"
           d="M -3.8048674,-3.9585227 L 0.54352094,0"
           style="fill:#ffcc00;fill-rule:evenodd;stroke:#808080;stroke-width:0.8;stroke-linecap:round;stroke-opacity:1;fill-opacity:1" />
        <path
           id="path2451"
           d="M -1.2866832,-3.9585227 L 3.0617053,0"
           style="fill:#ffcc00;fill-rule:evenodd;stroke:#808080;stroke-width:0.8;stroke-linecap:round;stroke-opacity:1;fill-opacity:1" />
        <path
           id="path2453"
           d="M 1.3053582,-3.9585227 L 5.6537466,0"
           style="fill:#ffcc00;fill-rule:evenodd;stroke:#808080;stroke-width:0.8;stroke-linecap:round;stroke-opacity:1;fill-opacity:1" />
        <path
           id="path2455"
           d="M -3.8048674,4.1775838 L 0.54352094,0.21974226"
           style="fill:#ffcc00;fill-rule:evenodd;stroke:#808080;stroke-width:0.8;stroke-linecap:round;stroke-opacity:1;fill-opacity:1" />
        <path
           id="path2457"
           d="M -1.2866832,4.1775838 L 3.0617053,0.21974226"
           style="fill:#ffcc00;fill-rule:evenodd;stroke:#808080;stroke-width:0.8;stroke-linecap:round;stroke-opacity:1;fill-opacity:1" />
        <path
           id="path2459"
           d="M 1.3053582,4.1775838 L 5.6537466,0.21974226"
           style="fill:#ffcc00;fill-rule:evenodd;stroke:#808080;stroke-width:0.8;stroke-linecap:round;stroke-opacity:1;fill-opacity:1" />
      </g>
    </marker>
    <marker
       inkscape:stockid="Arrow1Mend"
       orient="auto"
       refY="0.0"
       refX="0.0"
       id="Arrow1Mend"
       style="overflow:visible;"
       inkscape:isstock="true">
      <path
         id="path2422"
         d="M 0.0,0.0 L 5.0,-5.0 L -12.5,0.0 L 5.0,5.0 L 0.0,0.0 z "
         style="fill-rule:evenodd;stroke:#808080;stroke-width:1pt;stroke-opacity:1;fill:#ffcc00;fill-opacity:1"
         transform="scale(0.4) rotate(180) translate(10,0)" />
    </marker>
    <marker
       inkscape:stockid="Arrow1Lstart"
       orient="auto"
       refY="0.0"
       refX="0.0"
       id="Arrow1Lstart"
       style="overflow:visible"
       inkscape:isstock="true">
      <path
         id="path2413"
         d="M 0.0,0.0 L 5.0,-5.0 L -12.5,0.0 L 5.0,5.0 L 0.0,0.0 z "
         style="fill-rule:evenodd;stroke:#808080;stroke-width:1pt;stroke-opacity:1;fill:#ffcc00;fill-opacity:1"
         transform="scale(0.8) translate(12.5,0)" />
    </marker>
  </defs>
  <sodipodi:namedview
     pagecolor="#ffffff"
     bordercolor="#666666"
     borderopacity="1"
     objecttolerance="10"
     gridtolerance="10"
     guidetolerance="10"
     inkscape:pageopacity="0"
     inkscape:pageshadow="2"
     inkscape:window-width="1920"
     inkscape:window-height="1137"
     id="namedview28"
     showgrid="false"
     inkscape:zoom="14.539883"
     inkscape:cx="-0.070247957"
     inkscape:cy="11.027356"
     inkscape:window-x="1272"
     inkscape:window-y="-8"
     inkscape:window-maximized="1"
     inkscape:current-layer="svg26" />
  <path
     style="display:inline;fill:#ff9900;fill-opacity:1;fill-rule:evenodd;stroke:none;stroke-width:0.1;stroke-linecap:square;stroke-linejoin:miter;stroke-miterlimit:4;stroke-dasharray:none;stroke-opacity:1"
     d="m 4.3302604,12.536905 a 7.821755,7.912985 0 0 0 7.8215616,7.774095 7.821755,7.912985 0 0 0 7.8122,-7.780364 h -7.815321 z"
     id="path3797"
     inkscape:connector-curvature="0" />
  <path
     inkscape:connector-curvature="0"
     style="display:inline;fill:#ffcc00;fill-opacity:1;fill-rule:evenodd;stroke:#616161;stroke-width:0.35;stroke-linecap:square;stroke-linejoin:miter;stroke-miterlimit:4;stroke-dasharray:none;stroke-opacity:0.81818181"
     d="m 4.3365022,12.694236 a 7.821755,7.912985 0 0 1 7.8215618,-7.7741017 7.821755,7.912985 0 0 1 7.812199,7.7803697 h -7.81532 z"
     id="path3797-8" />
  <path
     id="path825"
     d="m 22.131645,5.2035789 -4.6,-3.8600001 -1.29,1.5300001 4.6,3.86 z m -14.12,-2.33 -1.2799998,-1.5300001 -4.6,3.8500001 1.29,1.53 z m 4.62,4.61 h -1.5 V 13.48358 l 4.75,2.85 0.75,-1.23 -4,-2.37 z m -0.5,-4 c -4.9699998,0 -8.9999998,4.03 -8.9999998,9.0000011 0,4.97 4.02,9 8.9999998,9 4.97,0 9,-4.03 9,-9 0,-4.9700011 -4.03,-9.0000011 -9,-9.0000011 z m 0,16.0000011 c -3.87,0 -6.9999998,-3.13 -6.9999998,-7 0,-3.870001 3.1299998,-7.0000011 6.9999998,-7.0000011 3.87,0 7,3.1300001 7,7.0000011 0,3.87 -3.13,7 -7,7 z"
     inkscape:connector-curvature="0"
     style="fill:#808080;fill-opacity:1" />
  <path
     d="m 1.581856,0.82531614 h 24 V 24.825316 h -24 z"
     id="path22"
     inkscape:connector-curvature="0"
     style="fill:none" />
</svg>
